<!DOCTYPE svg PUBLIC "-//W3C//DTD SVG 1.1//EN" "http://www.w3.org/Graphics/SVG/1.1/DTD/svg11.dtd">
<!-- Uploaded to: SVG Repo, www.svgrepo.com, Transformed by: SVG Repo Mixer Tools -->
<svg fill="#f49212" width="800px" height="800px" viewBox="0 0 24 24" id="hammer-drill-2" data-name="Flat Line" xmlns="http://www.w3.org/2000/svg" class="icon flat-line" stroke="#f49212">
<g id="SVGRepo_bgCarrier" stroke-width="0"/>
<g id="SVGRepo_tracerCarrier" stroke-linecap="round" stroke-linejoin="round"/>
<g id="SVGRepo_iconCarrier">
<rect id="secondary" x="8" y="3" width="8" height="8" rx="1" style="fill: #f36623; stroke-width: 2;"/>
<path id="primary" d="M12,15v6M16,5h4M8,5H4M6,21H18M15,11H9a1,1,0,0,1-1-1V4A1,1,0,0,1,9,3h6a1,1,0,0,1,1,1v6A1,1,0,0,1,15,11Zm-1,0H10v3a1,1,0,0,0,1,1h2a1,1,0,0,0,1-1Z" style="fill: none; stroke: #f49212; stroke-linecap: round; stroke-linejoin: round; stroke-width: 2;"/>
</g>
</svg>