<!DOCTYPE svg PUBLIC "-//W3C//DTD SVG 1.1//EN" "http://www.w3.org/Graphics/SVG/1.1/DTD/svg11.dtd">

<!-- Uploaded to: SVG Repo, www.svgrepo.com, Transformed by: SVG Repo Mixer Tools -->
<svg fill="#f36623" width="800px" height="800px" viewBox="0 0 512 512" version="1.1" xml:space="preserve" xmlns="http://www.w3.org/2000/svg" xmlns:xlink="http://www.w3.org/1999/xlink">

<g id="SVGRepo_bgCarrier" stroke-width="0"/>

<g id="SVGRepo_tracerCarrier" stroke-linecap="round" stroke-linejoin="round"/>

<g id="SVGRepo_iconCarrier"> <g id="Shovel"> <g id="XMLID_416_"> <path d="M507.321,92.501L419.498,4.678c-1.869-1.868-4.402-2.918-7.045-2.918c-2.642,0-5.176,1.05-7.045,2.918 l-26.346,26.347c-1.862,1.862-2.911,4.385-2.918,7.018l-0.184,70.074c-0.003,1.124,0.195,2.225,0.554,3.268l-61.43,61.43 l24.099,24.099l61.429-61.449c1.035,0.357,2.128,0.535,3.243,0.535c0.009,0,0.018,0,0.026,0l70.074-0.165 c2.633-0.007,5.156-1.046,7.019-2.908l26.346-26.342C511.212,102.695,511.212,96.391,507.321,92.501z M469.792,115.94 l-61.821,0.163l-12.075-12.075l0.163-61.821l16.395-16.395l73.733,73.734L469.792,115.94z" id="XMLID_420_"/> <path d="M166.787,397.49c-6.982,6.982-16.265,10.827-26.139,10.827c-9.873,0-19.157-3.845-26.137-10.827 c-0.001-0.001-0.001-0.001-0.001-0.001c-6.982-6.981-10.827-16.264-10.827-26.137c0-9.874,3.845-19.157,10.827-26.139 l21.596-21.596l-43.193-43.192l-66.581,66.581C3.77,369.567-3.978,402.396,6.112,432.682l18.3,54.904l54.905,18.301 c30.289,10.092,63.116,2.343,85.676-20.219l66.581-66.581l-43.192-43.192L166.787,397.49z" id="XMLID_516_"/> <path d="M128.599,359.234c-3.218,3.218-4.991,7.565-4.991,12.118c0,4.551,1.773,8.83,4.99,12.049 c0.001,0,0.001,0,0.001,0c3.218,3.218,7.497,4.991,12.049,4.991c4.552,0,8.831-1.773,12.05-4.991l119.33-119.347l-23.102-25.111 L128.599,359.234z" id="XMLID_607_"/> <rect height="55.123" id="XMLID_608_" transform="matrix(-0.7071 -0.7071 0.7071 -0.7071 346.6713 580.4808)" width="34.08" x="276.516" y="190.881"/> </g> </g> <g id="Layer_1"/> </g>

</svg>